<svg width="1331" height="738" viewBox="0 0 1331 738" fill="none" xmlns="http://www.w3.org/2000/svg">
<rect width="1331" height="738" fill="#E5E5E5"/>
<rect x="-12" y="-15" width="1360" height="768" fill="#606060"/>
<circle cx="668" cy="408" r="157" fill="#B9B8B8" stroke="black" stroke-width="10"/>
<mask id="path-3-inside-1" fill="white">
<path d="M1347 751C1347 447.243 1119.52 203 831.5 203C738.261 203 647.738 232.791 572 278C647.738 232.791 758.761 174 852 174C1074.75 174 1269.96 312.911 1347 516.382V751Z"/>
</mask>
<path d="M1347 751C1347 447.243 1119.52 203 831.5 203C738.261 203 647.738 232.791 572 278C647.738 232.791 758.761 174 852 174C1074.75 174 1269.96 312.911 1347 516.382V751Z" fill="black"/>
<path d="M1347 516.382H1352V515.467L1351.68 514.611L1347 516.382ZM831.5 208C1116.46 208 1342 449.698 1342 751H1352C1352 444.789 1122.58 198 831.5 198V208ZM574.563 282.293C649.66 237.466 739.308 208 831.5 208V198C737.214 198 645.815 228.115 569.437 273.707L574.563 282.293ZM574.563 282.293C612.348 259.739 658.803 233.877 707.359 213.662C755.975 193.422 806.334 179 852 179V169C804.427 169 752.655 183.973 703.515 204.431C654.315 224.913 607.39 251.052 569.437 273.707L574.563 282.293ZM852 179C1072.63 179 1266.01 316.591 1342.32 518.152L1351.68 514.611C1273.92 309.231 1076.86 169 852 169V179ZM1342 516.382V751H1352V516.382H1342Z" fill="black" mask="url(#path-3-inside-1)"/>
<g opacity="0.5">
<mask id="path-5-inside-2" fill="white">
<path d="M425.87 496.308C527.966 548.416 599 570.665 710 561.5C601 570.5 490.117 567.135 388.021 515.027C178.03 407.851 45.0686 197.943 27.2764 -18.9998L83.0899 -18.9998C101.156 190.943 222.938 392.735 425.87 496.308Z"/>
</mask>
<path d="M425.87 496.308C527.966 548.416 599 570.665 710 561.5C601 570.5 490.117 567.135 388.021 515.027C178.03 407.851 45.0686 197.943 27.2764 -18.9998L83.0899 -18.9998C101.156 190.943 222.938 392.735 425.87 496.308Z" fill="black"/>
<path d="M83.0899 -18.9998L88.0714 -19.4285L87.6781 -23.9998L83.0899 -23.9998L83.0899 -18.9998ZM27.2764 -18.9998L27.2764 -23.9998L21.8495 -23.9998L22.2931 -18.5911L27.2764 -18.9998ZM709.589 556.517C599.811 565.581 529.722 543.699 428.143 491.855L423.597 500.762C526.21 553.133 598.189 575.749 710.411 566.483L709.589 556.517ZM709.589 556.517C600.884 565.493 491.138 562.042 390.294 510.573L385.748 519.48C489.097 572.228 601.116 575.507 710.411 566.483L709.589 556.517ZM428.143 491.855C226.865 389.126 106.001 188.93 88.0714 -19.4285L78.1083 -18.5711C96.3105 192.956 219.011 396.344 423.597 500.762L428.143 491.855ZM390.294 510.573C181.877 404.2 49.913 195.841 32.2597 -19.4085L22.2931 -18.5911C40.2241 200.044 174.184 411.501 385.748 519.48L390.294 510.573ZM83.0899 -23.9998L27.2764 -23.9998L27.2764 -13.9998L83.0899 -13.9998L83.0899 -23.9998Z" fill="black" mask="url(#path-5-inside-2)"/>
</g>
<mask id="path-7-inside-3" fill="white">
<path d="M447.5 446.415C509.519 516.036 544.5 535.41 644 565C556.5 544.5 490.276 516.036 428.257 446.415C313.718 317.837 272.11 146.326 305.641 -14.0002L337.334 -14.0002C297.737 146.034 332.522 317.344 447.5 446.415Z"/>
</mask>
<path d="M447.5 446.415C509.519 516.036 544.5 535.41 644 565C556.5 544.5 490.276 516.036 428.257 446.415C313.718 317.837 272.11 146.326 305.641 -14.0002L337.334 -14.0002C297.737 146.034 332.522 317.344 447.5 446.415Z" fill="black"/>
<path d="M644 565L642.859 569.868L645.425 560.207L644 565ZM337.334 -14.0002L342.188 -12.7992L343.722 -19.0002L337.334 -19.0002L337.334 -14.0002ZM305.641 -14.0002L305.641 -19.0002L301.579 -19.0002L300.747 -15.0237L305.641 -14.0002ZM645.425 560.207C595.742 545.432 562.625 533.333 534.255 516.424C505.947 499.553 482.091 477.728 451.234 443.089L443.767 449.741C474.929 484.723 499.572 507.395 529.135 525.014C558.634 542.595 592.758 554.978 642.575 569.793L645.425 560.207ZM645.141 560.132C558.229 539.77 493.087 511.675 431.99 443.089L424.523 449.741C487.464 520.397 554.771 549.23 642.859 569.868L645.141 560.132ZM451.234 443.089C337.437 315.344 302.956 145.761 342.188 -12.7992L332.481 -15.2011C292.519 146.308 327.607 319.343 443.767 449.741L451.234 443.089ZM431.99 443.089C318.538 315.731 277.319 145.846 310.535 -12.9766L300.747 -15.0237C266.902 146.806 308.898 319.943 424.523 449.741L431.99 443.089ZM337.334 -19.0002L305.641 -19.0002L305.641 -9.00017L337.334 -9.00016L337.334 -19.0002Z" fill="black" mask="url(#path-7-inside-3)"/>
<mask id="path-9-inside-4" fill="white">
<path d="M696 182C628 222.721 570.481 256.272 522 338C570.481 256.272 621.411 181.364 709.689 128.5C920.586 2.2077 1169.23 5.24387 1346.71 136.13L1346.71 219.711C1170.92 75.8776 911.381 53.0226 696 182Z"/>
</mask>
<path d="M696 182C628 222.721 570.481 256.272 522 338C570.481 256.272 621.411 181.364 709.689 128.5C920.586 2.2077 1169.23 5.24387 1346.71 136.13L1346.71 219.711C1170.92 75.8776 911.381 53.0226 696 182Z" fill="black"/>
<path d="M1346.71 136.13L1351.71 136.13L1351.71 133.605L1349.68 132.106L1346.71 136.13ZM1346.71 219.711L1343.54 223.581L1351.71 230.262L1351.71 219.711L1346.71 219.711ZM526.3 340.551C574.074 260.016 630.564 227.013 698.569 186.29L693.431 177.71C625.436 218.428 566.889 252.528 517.7 335.449L526.3 340.551ZM526.3 340.551C574.707 258.949 625.11 184.977 712.258 132.79L707.12 124.21C617.711 177.751 566.256 253.595 517.7 335.449L526.3 340.551ZM712.258 132.79C921.678 7.38178 1168.11 10.6309 1343.74 140.154L1349.68 132.106C1170.35 -0.143187 919.494 -2.96638 707.12 124.21L712.258 132.79ZM698.569 186.29C912.187 58.3676 1169.43 81.1168 1343.54 223.581L1349.87 215.841C1172.41 70.6385 910.574 47.6777 693.431 177.71L698.569 186.29ZM1341.71 136.13L1341.71 219.711L1351.71 219.711L1351.71 136.13L1341.71 136.13Z" fill="black" mask="url(#path-9-inside-4)"/>
<g opacity="0.5">
<mask id="path-11-inside-5" fill="white">
<path d="M677.935 209.897C609.572 250.835 551.715 284.515 504.783 369.698C551.715 284.515 602.153 230.207 690.902 177.061C902.925 50.0944 1158.11 61.8531 1344.67 207.028L1346.78 272.299C1161.51 113.424 894.465 80.2312 677.935 209.897Z"/>
</mask>
<path d="M677.935 209.897C609.572 250.835 551.715 284.515 504.783 369.698C551.715 284.515 602.153 230.207 690.902 177.061C902.925 50.0944 1158.11 61.8531 1344.67 207.028L1346.78 272.299C1161.51 113.424 894.465 80.2312 677.935 209.897Z" fill="black"/>
<path d="M1344.67 207.028L1349.67 206.867L1349.6 204.522L1347.74 203.082L1344.67 207.028ZM1346.78 272.299L1343.53 276.095L1352.15 283.485L1351.78 272.138L1346.78 272.299ZM509.163 372.111C555.384 288.217 612.148 255.12 680.503 214.187L675.366 205.607C606.995 246.55 548.046 280.812 500.404 367.286L509.163 372.111ZM509.163 372.111C555.679 287.681 605.501 234.03 693.471 181.351L688.333 172.771C598.804 226.384 547.751 281.348 500.404 367.286L509.163 372.111ZM693.471 181.351C903.828 55.3815 1156.77 67.1401 1341.6 210.974L1347.74 203.082C1159.46 56.5661 902.022 44.8074 688.333 172.771L693.471 181.351ZM680.503 214.187C895.069 85.6975 1159.78 118.527 1343.53 276.095L1350.04 268.504C1163.24 108.321 893.861 74.7649 675.366 205.607L680.503 214.187ZM1339.68 207.189L1341.78 272.461L1351.78 272.138L1349.67 206.867L1339.68 207.189Z" fill="black" mask="url(#path-11-inside-5)"/>
</g>
<mask id="path-13-inside-6" fill="white">
<path d="M967.429 755C996.078 562.307 914 382 789 302C896 353 1014 491 1014 755H967.429Z"/>
</mask>
<path d="M967.429 755C996.078 562.307 914 382 789 302C896 353 1014 491 1014 755H967.429Z" fill="black"/>
<path d="M789 302L791.151 297.486L786.305 306.211L789 302ZM967.429 755L962.483 754.265L961.63 760H967.429V755ZM1014 755V760H1019V755H1014ZM786.305 306.211C909.407 384.997 990.887 563.224 962.483 754.265L972.374 755.735C1001.27 561.39 918.593 379.003 791.695 297.789L786.305 306.211ZM786.849 306.514C891.852 356.562 1009 492.627 1009 755H1019C1019 489.373 900.148 349.438 791.151 297.486L786.849 306.514ZM967.429 760H1014V750H967.429V760Z" fill="black" mask="url(#path-13-inside-6)"/>
<mask id="path-15-inside-7" fill="white">
<path d="M695 752C824.249 620.694 862.178 472.309 806 330C851.386 425.575 899.534 584.694 752 752L695 752Z"/>
</mask>
<path d="M695 752C824.249 620.694 862.178 472.309 806 330C851.386 425.575 899.534 584.694 752 752L695 752Z" fill="black"/>
<path d="M806 330L810.517 327.855L801.349 331.836L806 330ZM695 752L691.437 748.492L683.062 757L695 757L695 752ZM752 752L752 757L754.257 757L755.75 755.307L752 752ZM801.349 331.836C856.648 471.919 819.615 618.273 691.437 748.492L698.563 755.507C828.882 623.115 867.708 472.7 810.651 328.164L801.349 331.836ZM801.483 332.145C824.028 379.619 847.066 442.495 846.345 514.051C845.626 585.459 821.243 665.917 748.25 748.693L755.75 755.307C830.29 670.777 855.601 588.022 856.345 514.151C857.087 440.427 833.358 375.956 810.517 327.855L801.483 332.145ZM695 757L752 757L752 747L695 747L695 757Z" fill="black" mask="url(#path-15-inside-7)"/>
<g opacity="0.5">
<mask id="path-17-inside-8" fill="white">
<path d="M656.265 749.718C797.759 631.711 849.02 482.13 807.059 335C842.86 434.563 867.145 602.37 703.925 754.412L656.265 749.718Z"/>
</mask>
<path d="M656.265 749.718C797.759 631.711 849.02 482.13 807.059 335C842.86 434.563 867.145 602.37 703.925 754.412L656.265 749.718Z" fill="black"/>
<path d="M807.059 335L811.764 333.308L802.251 336.371L807.059 335ZM656.265 749.718L653.062 745.878L643.895 753.524L655.775 754.694L656.265 749.718ZM703.925 754.412L703.435 759.387L705.682 759.609L707.333 758.07L703.925 754.412ZM802.251 336.371C843.574 481.268 793.322 628.901 653.062 745.878L659.467 753.558C802.197 634.521 854.465 482.992 811.867 333.629L802.251 336.371ZM802.354 336.692C820.087 386.009 834.884 452.01 825.169 524.361C815.47 596.599 781.294 675.508 700.517 750.753L707.333 758.07C789.777 681.273 825.068 600.258 835.08 525.692C845.078 451.238 829.832 383.555 811.764 333.308L802.354 336.692ZM655.775 754.694L703.435 759.387L704.415 749.436L656.755 744.742L655.775 754.694Z" fill="black" mask="url(#path-17-inside-8)"/>
</g>
<mask id="path-19-inside-9" fill="white">
<path d="M823 753C894.721 595.348 893.897 436.041 795.361 319C868.797 395.169 919.488 547.124 865 753L823 753Z"/>
</mask>
<path d="M823 753C894.721 595.348 893.897 436.041 795.361 319C868.797 395.169 919.488 547.124 865 753L823 753Z" fill="black"/>
<path d="M795.361 319L798.96 315.53L791.536 322.22L795.361 319ZM823 753L818.449 750.93L815.232 758L823 758L823 753ZM865 753L865 758L868.849 758L869.834 754.279L865 753ZM791.536 322.22C888.412 437.29 889.679 594.354 818.449 750.93L827.551 755.07C899.762 596.341 899.381 434.792 799.186 315.78L791.536 322.22ZM791.761 322.47C863.722 397.109 914.312 547.135 860.166 751.721L869.834 754.279C924.663 547.112 873.871 393.229 798.96 315.53L791.761 322.47ZM823 758L865 758L865 748L823 748L823 758Z" fill="black" mask="url(#path-19-inside-9)"/>
<g opacity="0.5">
<mask id="path-21-inside-10" fill="white">
<path d="M864 752.644C892 570 902 450 801.827 335C885.016 400.376 949.561 541.24 923.827 752.644L864 752.644Z"/>
</mask>
<path d="M864 752.644C892 570 902 450 801.827 335C885.016 400.376 949.561 541.24 923.827 752.644L864 752.644Z" fill="black"/>
<path d="M801.827 335L804.917 331.069L798.057 338.284L801.827 335ZM864 752.644L859.058 751.886L858.175 757.644L864 757.644L864 752.644ZM923.827 752.644L923.827 757.644L928.255 757.644L928.79 753.248L923.827 752.644ZM798.057 338.284C896.552 451.358 887.081 569.088 859.058 751.886L868.942 753.401C896.919 570.912 907.448 448.642 805.597 331.716L798.057 338.284ZM798.738 338.931C880.161 402.92 944.455 541.811 918.864 752.04L928.79 753.248C954.668 540.668 889.872 397.833 804.917 331.069L798.738 338.931ZM864 757.644L923.827 757.644L923.827 747.644L864 747.644L864 757.644Z" fill="black" mask="url(#path-21-inside-10)"/>
</g>
<mask id="path-23-inside-11" fill="white">
<path d="M477.643 753.989C655.05 717.187 763 599 821 451C806.052 540.811 732.89 666.53 590 753.989L477.643 753.989Z"/>
</mask>
<path d="M477.643 753.989C655.05 717.187 763 599 821 451C806.052 540.811 732.89 666.53 590 753.989L477.643 753.989Z" fill="black"/>
<path d="M821 451L825.932 451.821L816.345 449.176L821 451ZM477.643 753.989L476.628 749.093L477.643 758.989L477.643 753.989ZM590 753.989L590 758.989L591.409 758.989L592.61 758.253L590 753.989ZM816.345 449.176C758.817 595.971 652.026 712.708 476.628 749.093L478.659 758.884C658.073 721.667 767.183 602.029 825.655 452.824L816.345 449.176ZM477.643 758.989L590 758.989L590 748.989L477.643 748.989L477.643 758.989ZM816.068 450.179C801.386 538.392 729.196 662.929 587.39 749.724L592.61 758.253C736.584 670.131 810.718 543.23 825.932 451.821L816.068 450.179Z" fill="black" mask="url(#path-23-inside-11)"/>
<mask id="path-25-inside-12" fill="white">
<path d="M840 277C756 243 699 239.197 612 257C702 231 777.292 219.608 866 248.32C1088.28 320.265 1257.83 522.595 1266.64 750.32H1191C1179.83 534.319 1068 397 840 277Z"/>
</mask>
<path d="M840 277C756 243 699 239.197 612 257C702 231 777.292 219.608 866 248.32C1088.28 320.265 1257.83 522.595 1266.64 750.32H1191C1179.83 534.319 1068 397 840 277Z" fill="black"/>
<path d="M612 257L610.612 252.196L613.002 261.898L612 257ZM840 277L842.329 272.575L842.108 272.459L841.876 272.365L840 277ZM866 248.32L864.46 253.077L866 248.32ZM1191 750.32L1186.01 750.578L1186.25 755.32H1191V750.32ZM1266.64 750.32V755.32H1271.84L1271.64 750.126L1266.64 750.32ZM613.002 261.898C656.224 253.054 691.717 249.634 726.709 252.556C761.691 255.478 796.438 264.762 838.124 281.635L841.876 272.365C799.562 255.238 763.809 245.62 727.541 242.591C691.283 239.563 654.776 243.143 610.998 252.102L613.002 261.898ZM613.388 261.804C703.007 235.913 777.147 224.816 864.46 253.077L867.54 243.563C777.437 214.4 700.993 226.087 610.612 252.196L613.388 261.804ZM837.671 281.425C951.314 341.237 1035.58 405.149 1092.83 480.68C1150.01 556.12 1180.47 643.458 1186.01 750.578L1195.99 750.062C1190.36 641.181 1159.33 551.86 1100.8 474.639C1042.34 397.511 956.686 332.763 842.329 272.575L837.671 281.425ZM864.46 253.077C1085 324.459 1252.93 525.141 1261.65 750.513L1271.64 750.126C1262.74 520.05 1091.56 316.071 867.54 243.563L864.46 253.077ZM1266.64 745.32H1191V755.32H1266.64V745.32Z" fill="black" mask="url(#path-25-inside-12)"/>
<g opacity="0.5">
<mask id="path-27-inside-13" fill="white">
<path d="M770.549 276.343C681.841 247.631 679.979 242.63 594 262.32C679.979 242.63 716.292 233.608 805 262.32C1027.28 334.265 1196.1 522.776 1204.91 750.5H1124.11C1112.94 534.5 979.099 343.844 770.549 276.343Z"/>
</mask>
<path d="M770.549 276.343C681.841 247.631 679.979 242.63 594 262.32C679.979 242.63 716.292 233.608 805 262.32C1027.28 334.265 1196.1 522.776 1204.91 750.5H1124.11C1112.94 534.5 979.099 343.844 770.549 276.343Z" fill="black"/>
<path d="M770.549 276.343L772.088 271.586L772.088 271.586L770.549 276.343ZM805 262.32L806.54 257.563L805 262.32ZM1124.11 750.5L1119.11 750.758L1119.36 755.5H1124.11V750.5ZM1204.91 750.5V755.5H1210.11L1209.91 750.307L1204.91 750.5ZM595.116 267.194C638.174 257.333 659.362 253.875 680.721 256.153C702.349 258.459 724.255 266.615 769.009 281.1L772.088 271.586C728.134 257.36 704.755 248.659 681.781 246.209C658.537 243.73 635.805 247.617 592.884 257.446L595.116 267.194ZM595.116 267.194C638.258 257.314 668.319 250.273 698.659 249.166C728.817 248.066 759.47 252.839 803.46 267.077L806.54 257.563C761.822 243.089 729.964 238.017 698.294 239.172C666.806 240.321 635.721 247.636 592.884 257.446L595.116 267.194ZM769.009 281.1C975.419 347.908 1108.05 536.647 1119.11 750.758L1129.1 750.242C1117.84 532.352 982.779 339.779 772.088 271.586L769.009 281.1ZM803.46 267.077C1024.16 338.508 1191.2 525.461 1199.92 750.693L1209.91 750.307C1201 520.09 1030.41 330.023 806.54 257.563L803.46 267.077ZM1204.91 745.5H1124.11V755.5H1204.91V745.5Z" fill="black" mask="url(#path-27-inside-13)"/>
</g>
<mask id="path-29-inside-14" fill="white">
<path d="M492.073 506.803C572.624 553.759 622.8 562.915 711 562C622.8 562.915 557.47 564.807 476.919 517.85C287.047 407.165 167.356 193.7 187.054 -18L246.079 -18C210.956 195.418 302.699 396.408 492.073 506.803Z"/>
</mask>
<path d="M492.073 506.803C572.624 553.759 622.8 562.915 711 562C622.8 562.915 557.47 564.807 476.919 517.85C287.047 407.165 167.356 193.7 187.054 -18L246.079 -18C210.956 195.418 302.699 396.408 492.073 506.803Z" fill="black"/>
<path d="M492.073 506.803L494.591 502.483L492.073 506.803ZM476.919 517.85L474.401 522.17L474.401 522.17L476.919 517.85ZM246.079 -18L251.012 -17.1881L251.969 -23L246.079 -23L246.079 -18ZM187.054 -18L187.054 -23L182.498 -23L182.076 -18.4633L187.054 -18ZM710.948 557C667.009 557.456 632.886 555.395 599.831 547.49C566.808 539.593 534.588 525.799 494.591 502.483L489.555 511.122C530.109 534.763 563.253 549.025 597.505 557.216C631.726 565.399 666.791 567.459 711.052 567L710.948 557ZM710.948 557C622.657 557.916 558.655 559.71 479.437 513.531L474.401 522.17C556.286 569.904 622.943 567.913 711.052 567L710.948 557ZM494.591 502.483C307.039 393.151 216.221 194.22 251.012 -17.1881L241.145 -18.8119C205.692 196.617 298.359 399.665 489.555 511.122L494.591 502.483ZM479.437 513.531C291.071 403.724 172.532 192.033 192.033 -17.5368L182.076 -18.4633C162.179 195.368 283.022 410.607 474.401 522.17L479.437 513.531ZM187.054 -13L246.079 -13L246.079 -23L187.054 -23L187.054 -13Z" fill="black" mask="url(#path-29-inside-14)"/>
<mask id="path-31-inside-15" fill="white">
<path d="M636.034 644.749C725.116 596.642 784.695 530.439 829.163 446.129C784.695 530.439 728.522 617.711 639.439 665.818C443.466 771.648 188.158 765.309 -11.3328 644.749L-10 570.471C184.569 709.481 439.908 750.662 636.034 644.749Z"/>
</mask>
<path d="M636.034 644.749C725.116 596.642 784.695 530.439 829.163 446.129C784.695 530.439 728.522 617.711 639.439 665.818C443.466 771.648 188.158 765.309 -11.3328 644.749L-10 570.471C184.569 709.481 439.908 750.662 636.034 644.749Z" fill="black"/>
<path d="M636.034 644.749L638.41 649.148L638.41 649.148L636.034 644.749ZM639.439 665.818L641.815 670.217L641.815 670.217L639.439 665.818ZM-10 570.471L-7.09339 566.403L-14.8287 560.877L-14.9992 570.382L-10 570.471ZM-11.3328 644.749L-16.332 644.659L-16.3836 647.538L-13.9189 649.028L-11.3328 644.749ZM824.74 443.797C780.673 527.347 721.759 592.773 633.658 640.349L638.41 649.148C728.474 600.511 788.718 533.531 833.585 448.462L824.74 443.797ZM824.74 443.797C780.335 527.988 724.742 614.07 637.063 661.418L641.815 670.217C732.301 621.353 789.056 532.89 833.585 448.462L824.74 443.797ZM633.658 640.349C439.636 745.126 186.358 704.614 -7.09339 566.403L-12.9066 574.54C182.78 714.347 440.179 756.197 638.41 649.148L633.658 640.349ZM637.063 661.418C442.689 766.385 189.268 760.137 -8.74665 640.469L-13.9189 649.028C187.048 770.48 444.242 776.911 641.815 670.217L637.063 661.418ZM-14.9992 570.382L-16.332 644.659L-6.33357 644.838L-5.00082 570.561L-14.9992 570.382Z" fill="black" mask="url(#path-31-inside-15)"/>
<mask id="path-33-inside-16" fill="white">
<path d="M527.973 599.147C627.815 605.093 721.632 565.111 798.218 511.62C721.632 565.111 633.416 614.674 533.574 608.727C313.931 595.646 109.76 475.974 -12.5536 248.898L-12.5536 198C97.2388 439.533 308.159 586.055 527.973 599.147Z"/>
</mask>
<path d="M527.973 599.147C627.815 605.093 721.632 565.111 798.218 511.62C721.632 565.111 633.416 614.674 533.574 608.727C313.931 595.646 109.76 475.974 -12.5536 248.898L-12.5536 198C97.2388 439.533 308.159 586.055 527.973 599.147Z" fill="black"/>
<path d="M527.973 599.147L527.676 604.138L527.676 604.138L527.973 599.147ZM533.574 608.727L533.277 613.719L533.277 613.719L533.574 608.727ZM-12.5536 198L-8.0018 195.931L-17.5536 198L-12.5536 198ZM-12.5536 248.898L-17.5536 248.898L-17.5536 250.159L-16.9556 251.27L-12.5536 248.898ZM795.355 507.521C719.303 560.638 626.592 600.012 528.271 594.156L527.676 604.138C629.038 610.175 723.961 569.583 801.081 515.72L795.355 507.521ZM795.355 507.521C718.889 560.928 631.897 609.575 533.871 603.736L533.277 613.719C634.935 619.773 724.376 569.293 801.081 515.72L795.355 507.521ZM528.271 594.156C310.519 581.187 101.116 435.98 -8.0018 195.931L-17.1054 200.069C93.3617 443.087 305.8 590.923 527.676 604.138L528.271 594.156ZM533.871 603.736C315.963 590.758 113.343 472.081 -8.15158 246.527L-16.9556 251.27C106.178 479.867 311.9 600.534 533.277 613.719L533.871 603.736ZM-17.5536 198L-17.5536 248.898L-7.55359 248.898L-7.5536 198L-17.5536 198Z" fill="black" mask="url(#path-33-inside-16)"/>
<mask id="path-35-inside-17" fill="white">
<path d="M530 498C520.994 475.598 513.977 454.15 509.164 432.961C493.98 371.371 489.051 302.619 502 242C525.35 132.692 582.517 46.8078 664 -15.6806L731.135 -15.6806C603.66 55.5263 548.287 156.417 513.832 281.301C498.686 336.194 498.014 383.879 509.164 432.961C514.819 455.897 521.895 477.84 530 498Z"/>
</mask>
<path d="M530 498C520.994 475.598 513.977 454.15 509.164 432.961C493.98 371.371 489.051 302.619 502 242C525.35 132.692 582.517 46.8078 664 -15.6806L731.135 -15.6806C603.66 55.5263 548.287 156.417 513.832 281.301C498.686 336.194 498.014 383.879 509.164 432.961C514.819 455.897 521.895 477.84 530 498Z" fill="black"/>
<path d="M513.832 281.301L509.012 279.971L509.012 279.971L513.832 281.301ZM502 242L497.11 240.955L497.11 240.955L502 242ZM664 -15.6806L664 -20.6806L662.303 -20.6806L660.957 -19.6482L664 -15.6806ZM731.135 -15.6806L733.573 -11.3154L750.339 -20.6806L731.135 -20.6806L731.135 -15.6806ZM534.639 496.135C525.709 473.922 518.782 452.73 514.04 431.854L504.288 434.069C509.173 455.569 516.279 477.275 525.361 499.865L534.639 496.135ZM514.04 431.854C503.079 383.602 503.719 336.755 518.651 282.631L509.012 279.971C493.654 335.634 492.95 384.156 504.288 434.069L514.04 431.854ZM534.639 496.135C526.625 476.202 519.619 454.483 514.019 431.764L504.309 434.158C510.018 457.312 517.165 479.479 525.361 499.865L534.639 496.135ZM514.019 431.764C498.962 370.69 494.14 302.73 506.89 243.045L497.11 240.955C483.962 302.507 488.998 372.052 504.309 434.158L514.019 431.764ZM506.89 243.045C529.985 134.93 586.479 50.0705 667.043 -11.713L660.957 -19.6482C578.555 43.5451 520.715 130.455 497.11 240.955L506.89 243.045ZM518.651 282.631C552.885 158.553 607.641 59.0294 733.573 -11.3154L728.696 -20.0457C599.678 52.0231 543.69 154.281 509.012 279.971L518.651 282.631ZM664 -10.6806L731.135 -10.6806L731.135 -20.6806L664 -20.6806L664 -10.6806Z" fill="black" mask="url(#path-35-inside-17)"/>
<mask id="path-37-inside-18" fill="white">
<path d="M530 498C520.994 475.598 513.977 454.15 509.164 432.961C493.98 371.371 489.051 302.619 502 242C525.35 132.692 582.517 46.8078 664 -15.6806L731.135 -15.6806C603.66 55.5263 548.287 156.417 513.832 281.301C498.686 336.194 498.014 383.879 509.164 432.961C514.819 455.897 521.895 477.84 530 498Z"/>
</mask>
<path d="M530 498C520.994 475.598 513.977 454.15 509.164 432.961C493.98 371.371 489.051 302.619 502 242C525.35 132.692 582.517 46.8078 664 -15.6806L731.135 -15.6806C603.66 55.5263 548.287 156.417 513.832 281.301C498.686 336.194 498.014 383.879 509.164 432.961C514.819 455.897 521.895 477.84 530 498Z" fill="black"/>
<path d="M513.832 281.301L509.012 279.971L509.012 279.971L513.832 281.301ZM502 242L497.11 240.955L497.11 240.955L502 242ZM664 -15.6806L664 -20.6806L662.303 -20.6806L660.957 -19.6482L664 -15.6806ZM731.135 -15.6806L733.573 -11.3154L750.339 -20.6806L731.135 -20.6806L731.135 -15.6806ZM534.639 496.135C525.709 473.922 518.782 452.73 514.04 431.854L504.288 434.069C509.173 455.569 516.279 477.275 525.361 499.865L534.639 496.135ZM514.04 431.854C503.079 383.602 503.719 336.755 518.651 282.631L509.012 279.971C493.654 335.634 492.95 384.156 504.288 434.069L514.04 431.854ZM534.639 496.135C526.625 476.202 519.619 454.483 514.019 431.764L504.309 434.158C510.018 457.312 517.165 479.479 525.361 499.865L534.639 496.135ZM514.019 431.764C498.962 370.69 494.14 302.73 506.89 243.045L497.11 240.955C483.962 302.507 488.998 372.052 504.309 434.158L514.019 431.764ZM506.89 243.045C529.985 134.93 586.479 50.0705 667.043 -11.713L660.957 -19.6482C578.555 43.5451 520.715 130.455 497.11 240.955L506.89 243.045ZM518.651 282.631C552.885 158.553 607.641 59.0294 733.573 -11.3154L728.696 -20.0457C599.678 52.0231 543.69 154.281 509.012 279.971L518.651 282.631ZM664 -10.6806L731.135 -10.6806L731.135 -20.6806L664 -20.6806L664 -10.6806Z" fill="black" mask="url(#path-37-inside-18)"/>
</svg>
